# xmcd
#
# Track frame offsets:
#	150
#	11246
#	21503
#	31977
#	43579
#	54477
#	66063
#	76503
#	89727
#	103354
#	114217
#	126355
#	137685
#	148054
#	159856
#	171771
#	180721
#	190660
#
# Disc length: 2686 seconds
# Revision: 1
# Processed by: cddbd v1.5.2PL0 Copyright (c) Steve Scherf et al.
# Submitted via: dBpowerAMP V12.0
#
DISCID=f30a7c12
DTITLE=Various Artist - The Excello Blues Story
DYEAR=2015
DGENRE=Blues
TTITLE0=Lightnin' Slim - I'm A Rollin' Stone
TTITLE1=Slim Harpo - Buzz Me Babe
TTITLE2=Roscoe Shelton - Let Me Believe In You
TTITLE3=Louis Brooks and His Hi-Toppers - Bus Station Blues
TTITLE4=Silas Hogan - Trouble At Home
TTITLE5=Kid King's Combo - Chocolate Sundae
TTITLE6=Lightnin' Slim - Hoo Doo Blues
TTITLE7=Lonesome Sundown - Leave My Money Alone
TTITLE8=Arthur Gunter - Baby Can't You See
TTITLE9=Guitar Gable - Congo Mongo
TTITLE10=Earl Gaines (with Louis Brooks and His Hi-Toppers) - Baby, Baby, What's Wrong
TTITLE11=Roscoe Shelton - Miss You
TTITLE12=Lightnin' Slim - Mind Your Own Business
TTITLE13=Arthur Gunter - You're Always On My Mind
TTITLE14=Kid King's Combo - Greasy Feet
TTITLE15=Lightnin' Slim - Too Close Blues
TTITLE16=Slim Harpo - Don't Start Cryin' Now
TTITLE17=Lonesome Sundown - I'm A Mojo Man
EXTD=
EXTT0=
EXTT1=
EXTT2=
EXTT3=
EXTT4=
EXTT5=
EXTT6=
EXTT7=
EXTT8=
EXTT9=
EXTT10=
EXTT11=
EXTT12=
EXTT13=
EXTT14=
EXTT15=
EXTT16=
EXTT17=
PLAYORDER=
